<svg enable-background="new 0 0 100.354 100.352" fill="#433e4c" viewBox="0 0 100.354 100.352" xmlns="http://www.w3.org/2000/svg"><path d="m93.09 76.224c.047-.145.079-.298.079-.459v-53.127c0-.162-.032-.316-.08-.462-.007-.02-.011-.04-.019-.06-.064-.171-.158-.325-.276-.46-.008-.009-.009-.02-.017-.029-.005-.005-.011-.007-.016-.012-.126-.134-.275-.242-.442-.323-.013-.006-.023-.014-.036-.02-.158-.071-.33-.111-.511-.123-.018-.001-.035-.005-.053-.005-.017-.001-.032-.005-.049-.005h-83.205c-.017 0-.033.004-.05.005-.016.001-.032.004-.048.005-.183.012-.358.053-.518.125-.01.004-.018.011-.028.015-.17.081-.321.191-.448.327-.005.005-.011.006-.016.011-.008.008-.009.019-.017.028-.118.135-.213.29-.277.461-.008.02-.012.04-.019.061-.048.146-.08.3-.08.462v53.128c0 .164.033.32.082.468.007.02.011.039.018.059.065.172.161.327.28.462.007.008.009.018.016.026.006.007.014.011.021.018.049.051.103.096.159.14.025.019.047.042.073.06.066.046.137.083.21.117.018.008.034.021.052.028.181.077.38.121.589.121h83.204c.209 0 .408-.043.589-.121.028-.012.054-.03.081-.044.062-.031.124-.063.181-.102.03-.021.057-.048.086-.071.051-.041.101-.082.145-.129.008-.008.017-.014.025-.022.008-.009.01-.021.018-.03.117-.134.211-.288.275-.458.01-.022.015-.043.022-.065zm-83.125-50.184 25.247 23.061-25.247 23.245zm51.746 21.931c-.104.068-.214.125-.301.221-.033.036-.044.083-.073.121l-11.27 10.294-37.736-34.469h75.472zm-24.275 3.161 11.619 10.613c.287.262.649.393 1.012.393s.725-.131 1.011-.393l11.475-10.481 25.243 23.002h-75.487zm27.342-1.9 25.391-23.192v46.33z"/></svg>