<svg xmlns="http://www.w3.org/2000/svg" fill="#433e4c" height="30" width="30" viewBox="0 0 64 64"><g id="Layer_6" data-name="Layer 6"><path d="M40.77,29.77a1,1,0,0,0,1.41,0l4.65-4.64a1,1,0,0,0,0-1.41l-6.55-6.54a1,1,0,0,0-1.41,0l-4.64,4.64a1,1,0,0,0,0,1.41ZM39.58,19.3l5.12,5.12-3.22,3.23-5.13-5.13Z"/><path d="M33.18,37.36a1,1,0,0,0,1.42,0l4.64-4.64a1,1,0,0,0,0-1.42L32.7,24.76a1,1,0,0,0-1.42,0L26.64,29.4a1,1,0,0,0,0,1.42ZM32,26.88,37.12,32l-3.23,3.23-5.13-5.13Z"/><path d="M60,43H33.63L52.26,24.38a1,1,0,0,0,0-1.42L41,11.69a1,1,0,0,0-1.42,0L20.94,30.34V4a1,1,0,0,0-1-1H4A1,1,0,0,0,3,4V51.81c0,.15,0,.4,0,.53a.07.07,0,0,0,0,0s0,0,0,.07a9,9,0,0,0,10,8.48H60a1,1,0,0,0,1-1V44A1,1,0,0,0,60,43ZM28.6,48.37h4.57v7.25H28.6ZM40.28,13.81l9.86,9.86L20.9,52.91c.11-3.41,0-9.22,0-12.62L25.59,45A1,1,0,0,0,27,45l4.64-4.64a1,1,0,0,0,0-1.42l-6.54-6.54a1,1,0,0,0-1.42,0l-2.75,2.76v-2ZM22.44,54.19v1.43H21ZM21.17,37.7l3.23-3.23,5.13,5.13L26.3,42.83ZM5,5H18.94V52a7,7,0,0,1-1.64,4.48h0a6.94,6.94,0,0,1-4.46,2.43A7.08,7.08,0,0,1,5,52C5,51.83,5,5.16,5,5ZM59,58.94H17.68a8.4,8.4,0,0,0,1.08-1.07l.25-.25c6.59-.13,5.3,1.14,5.43-5.43L26.6,50v6.59a1,1,0,0,0,1,1h6.57a1,1,0,0,0,1-1V47.37a1,1,0,0,0-1-1H30.26L31.63,45H59Z"/><path d="M49.06,57.63h6.57a1,1,0,0,0,1-1V47.38a1,1,0,0,0-1-1H49.06a1,1,0,0,0-1,1v9.25A1,1,0,0,0,49.06,57.63Zm1-9.25h4.57v7.25H50.06Z"/><path d="M38.33,57.63H44.9a1,1,0,0,0,1-1V47.38a1,1,0,0,0-1-1H38.33a1,1,0,0,0-1,1v9.25A1,1,0,0,0,38.33,57.63Zm1-9.25H43.9v7.25H39.33Z"/><path d="M7.38,15.94h9.25a1,1,0,0,0,1-1V8.38a1,1,0,0,0-1-1H7.38a1,1,0,0,0-1,1v6.56A1,1,0,0,0,7.38,15.94Zm1-6.56h7.25v4.56H8.38Z"/><path d="M7.38,26.67h9.25a1,1,0,0,0,1-1V19.1a1,1,0,0,0-1-1H7.38a1,1,0,0,0-1,1v6.57A1,1,0,0,0,7.38,26.67Zm1-6.57h7.25v4.57H8.38Z"/><path d="M7.38,37.4h9.25a1,1,0,0,0,1-1V29.83a1,1,0,0,0-1-1H7.38a1,1,0,0,0-1,1V36.4A1,1,0,0,0,7.38,37.4Zm1-6.57h7.25V35.4H8.38Z"/><path d="M7.38,48.13h9.25a1,1,0,0,0,1-1V40.56a1,1,0,0,0-1-1H7.38a1,1,0,0,0-1,1v6.57A1,1,0,0,0,7.38,48.13Zm1-6.57h7.25v4.57H8.38Z"/><path d="M12,50a3.38,3.38,0,0,0,0,6.76A3.38,3.38,0,0,0,12,50Zm0,4.76A1.38,1.38,0,0,1,12,52,1.38,1.38,0,0,1,12,54.71Z"/></g></svg>