<svg xmlns="http://www.w3.org/2000/svg" height="30" width="30" viewBox="0 0 64 64"><g id="Layer_59" data-name="Layer 59"><path d="M17.25,54.6H30.44a1,1,0,0,0,1-1V37.17a1.06,1.06,0,0,0-.78-1,6,6,0,0,1-4.43-4.42,1,1,0,0,0-1-.78h-8a1,1,0,0,0-1,1V53.6A1,1,0,0,0,17.25,54.6Zm1-21.6h6.26a8,8,0,0,0,4.93,4.91V52.6H18.25Z"/><path d="M17.25,29.88h8a1,1,0,0,0,1-.78,6,6,0,0,1,4.43-4.43,1.12,1.12,0,0,0,.52-.31,1.07,1.07,0,0,0,.26-.66V8.38a1,1,0,0,0-1-1H17.25a1,1,0,0,0-1,1v20.5A1,1,0,0,0,17.25,29.88Zm1-20.5H29.44V23a8.08,8.08,0,0,0-4.93,4.93H18.25Z"/><path d="M33.56,54.6H46.75a1,1,0,0,0,1-1V32a1,1,0,0,0-1-1h-8a1.07,1.07,0,0,0-1,.78,6,6,0,0,1-4.43,4.42,1.3,1.3,0,0,0-.42.22,1.09,1.09,0,0,0-.36.75V53.6A1,1,0,0,0,33.56,54.6ZM39.48,33h6.27V52.6H34.56V37.91A7.94,7.94,0,0,0,39.48,33Z"/><path d="M32.6,23.94a1,1,0,0,0,.64.7,6,6,0,0,1,4.53,4.46,1,1,0,0,0,1,.78h8a1,1,0,0,0,1-1V8.38a1,1,0,0,0-1-1H33.56a1,1,0,0,0-1,1V23.7A2,2,0,0,0,32.6,23.94Zm13.15,3.94H39.48A8,8,0,0,0,34.56,23V9.38H45.75Z"/><path d="M51,3.15H11a1,1,0,0,0-1,1V60a1,1,0,0,0,1,1H51a1,1,0,0,0,1-1V4.15A1,1,0,0,0,51,3.15ZM50,59H12V5.15H50Z"/><path d="M13.94,34.33a1,1,0,0,0,1-1V27.5a1,1,0,0,0-2,0v5.83A1,1,0,0,0,13.94,34.33Z"/></g></svg>